<svg id="visual" viewBox="0 0 1980 100" width="1980" height="100" xmlns="http://www.w3.org/2000/svg" xmlns:xlink="http://www.w3.org/1999/xlink" version="1.1"><rect x="0" y="0" width="1980" height="100" fill="#ffffff"></rect><path d="M0 49L47.2 55.3C94.3 61.7 188.7 74.3 283 69.8C377.3 65.3 471.7 43.7 566 29.8C660.3 16 754.7 10 848.8 19.3C943 28.7 1037 53.3 1131.2 55.7C1225.3 58 1319.7 38 1414 28.5C1508.3 19 1602.7 20 1697 27.8C1791.3 35.7 1885.7 50.3 1932.8 57.7L1980 65L1980 0L1932.8 0C1885.7 0 1791.3 0 1697 0C1602.7 0 1508.3 0 1414 0C1319.7 0 1225.3 0 1131.2 0C1037 0 943 0 848.8 0C754.7 0 660.3 0 566 0C471.7 0 377.3 0 283 0C188.7 0 94.3 0 47.2 0L0 0Z" fill="#6E2F2F" stroke-linecap="round" stroke-linejoin="miter"></path></svg>